<svg id="Layer_1" data-name="Layer 1" xmlns="http://www.w3.org/2000/svg" width="583.48" height="545.9" viewBox="0 0 583.48 545.9"><defs><style>.cls-1{fill:#595959;}.cls-2{fill:#fff;}</style></defs><path class="cls-1" d="M78.65,473.58S235.14,599.32,387.48,519.2,595.77,245.71,571.61,177.32,497.3.79,286.06,0,18.77,146,13.4,191.33-15.86,364.06,78.65,473.58Z"/><path class="cls-2" d="M483,189.42c-.21-1.59-.41-3.19-.66-4.78s-.55-3.35-.83-5a50.47,50.47,0,0,1-1-6.64,41.31,41.31,0,0,0-.69-5c-.65-4.46-1.78-8.85-2.16-13.35-.15-1.78,0-3.56-.19-5.29a46.92,46.92,0,0,0-2.06-10.18,12.89,12.89,0,0,0-1-1.95,7,7,0,0,1-.66-1c-.66-2.33-1.31-4.66-1.9-7a15.58,15.58,0,0,1-.14-5,19.64,19.64,0,0,0-2.17-10.3,78.23,78.23,0,0,1-3.75-10.29,3.74,3.74,0,0,0-1.12-1.83,7.27,7.27,0,0,0-4-1.61,3.16,3.16,0,0,0-2.39.73c-2.54,1.91-3.81,4.63-5.22,7.17a24,24,0,0,0-2.24,6.39,10.6,10.6,0,0,1-1,2.47,18,18,0,0,0-2.11,5.42c-.21,1.18-.74,2.32-1,3.49a24.5,24.5,0,0,0-1.14,4.69c-.13,2.24-.36,4.48-.58,6.72a20.28,20.28,0,0,0-.35,2.14c0,3.52.43,7-.08,10.56,0,.23.1.47.13.71.55,3.51,1.22,7,0,10.51a1,1,0,0,0,0,.24,30.28,30.28,0,0,1-.52,6,15.82,15.82,0,0,1-1.18,4.9,2.44,2.44,0,0,0-.17.93,59.3,59.3,0,0,1-1,7.12c-.51,2.52-1.48,5-1.35,7.58a2.5,2.5,0,0,1-.82,2,34.88,34.88,0,0,1-3.85,3.62c-1.83,1.38-3.53,2.91-5.23,4.42-2.34,2.08-4.6,4.22-6.94,6.29-1.14,1-2.39,1.9-3.59,2.84-3.68,2.89-7.41,5.69-11.89,7.52-.55.23-1,.59-1.59.85a21.83,21.83,0,0,1-2.36,1.07c-3.12,1.09-6.16,2.34-9.17,3.66-3.87,1.71-7.8,3.32-11.53,5.28a23.65,23.65,0,0,1-2.35,1c-1.08-.81-.49-1.61-.72-2.28a8.26,8.26,0,0,1,.29-5,23.22,23.22,0,0,0,.78-9.07c-.14-1.11-.44-2.21-.61-3.32-.55-3.58-1-7.18-1.63-10.76a18,18,0,0,1-.17-4.81c.21-2,.47-4,.49-6,0-1.59-.41-3.18.26-4.74a1.54,1.54,0,0,0,.05-.71c-.29-2.48-.52-4.95-.89-7.42-.52-3.51-.92-7-1.11-10.56a10.82,10.82,0,0,0-.51-3.1c-1.51-4.06-2-8.3-2.76-12.5q-.39-2.25-.84-4.5a7.77,7.77,0,0,0-.42-.88,13.13,13.13,0,0,1-.49-1.62c-.44-2.06-.85-4.11-1.27-6.17a4.21,4.21,0,0,1-.19-1.43,16.79,16.79,0,0,0-.28-4.31,40.83,40.83,0,0,1-.36-5,24.17,24.17,0,0,0-.3-4.09,2.43,2.43,0,0,0-.42-1.1c-1.35-1.82-3.29-3.11-5-4.63-2.11-.61-3.69-2.14-5.83-2.76a4.87,4.87,0,0,0-3-.3,3.13,3.13,0,0,1-1.79,0c-2.19-.78-4.5-.57-6.75-.84a2.83,2.83,0,0,0-2.26.43c-1.25,1.09-2.87,1.54-4.3,2.31a15.12,15.12,0,0,0-2.53,1.7,22.53,22.53,0,0,0-2.1,2.16,13.66,13.66,0,0,0-1.2,1.55c-1.15,1.76-1.49,3.76-2,5.71a5.23,5.23,0,0,0-.11,3.23,6.2,6.2,0,0,1-.21,3.09,9.73,9.73,0,0,1-1.21,3.4c-.75,1.1-.62,2.35-1.15,3.42a71.71,71.71,0,0,0-2.8,7.79,83.69,83.69,0,0,0-3.14,11.45c-.26,1.25-.26,2.55-.49,3.82q-.9,4.86-1.77,9.74c-.61,3.34-.67,6.71-1.08,10.06-.27,2.14-.15,4.33-.21,6.5,0,.24-.13.5-.05.71.8,2.2.28,4.48.49,6.72a57.13,57.13,0,0,0,.52,5.71,99,99,0,0,1,1.47,13.39,42.52,42.52,0,0,1,0,4.79,75.52,75.52,0,0,1-.7,8.39,52.33,52.33,0,0,0-.72,7.15c-.13,3.61-.34,7.22-.35,10.83,0,2.15-.58,4.3-.06,6.46a4.5,4.5,0,0,1-.15,1.44,4.74,4.74,0,0,0-.14,1.17,44.67,44.67,0,0,1,0,6.23c0,3.66-1.62,7.06-1.72,10.68-.7.93-.47,2-.59,3.05-.1.88-.16,1.76-.27,2.64-.33,2.79-.69,5.58-1,8.38a3.61,3.61,0,0,0,.08.72,17.78,17.78,0,0,1-.26,5,23.16,23.16,0,0,0-.26,3.11c-.07,1.69-.08,3.38-.12,5.07-.06,2.33-.15,4.66-.19,7,0,1.18.56,2.36-.11,3.54a.8.8,0,0,0,.1.68,2.89,2.89,0,0,1,0,2.58,8.53,8.53,0,0,1-.69,2.05c-.63.89.68,1.26.43,2,0,.08,0,.16,0,.24a30.84,30.84,0,0,0-.53,5.75c-.08,1.2-.34,2.39-.49,3.59-.3,2.39-.49,4.8-.86,7.19a54.63,54.63,0,0,0-.56,8.38c0,4.11-.16,8.21-.19,12.32a43.32,43.32,0,0,0,.21,7.72,23.45,23.45,0,0,1,.43,4.33c-.06,3.13-.29,6.25-.43,9.38-.14,3.38-.3,6.75-.36,10.13,0,1.85.21,3.7.19,5.55a91.85,91.85,0,0,0,.48,10.62,12.82,12.82,0,0,1,.09,2.9,27.6,27.6,0,0,0,.24,5.06c.07,1.2.17,2.41.27,3.61a13.77,13.77,0,0,0,.22,1.92c.63,2.84,1.34,5.67,1.93,8.51a14.09,14.09,0,0,0,3.95,6.73c.39.42.83.81,1.2,1.25,1.66,2,3.47,3.85,6.24,4.6a12.87,12.87,0,0,1,1.44.6,20.27,20.27,0,0,0,7.1,1.69c3.06.08,6.15-.1,9.22-.27a10.71,10.71,0,0,0,6.09-2,4,4,0,0,1,2.66-.92c2.75.16,5.41-.59,8.13-.64a24.4,24.4,0,0,0,9.57-2.44,8.09,8.09,0,0,0,1.3-.77,25.3,25.3,0,0,0,5-4.22,5,5,0,0,1,1.17-1,12.4,12.4,0,0,0,3-3,32.89,32.89,0,0,0,1.8-3.2,9.46,9.46,0,0,0,1.47-4.58,10.28,10.28,0,0,1,.63-3.55,9.66,9.66,0,0,0,.7-5.2c-.18-1.77-.4-3.53-.68-5.28a4.09,4.09,0,0,1,.17-2.11,15.25,15.25,0,0,0,.54-7.64,10.15,10.15,0,0,1-.12-2.4,31.7,31.7,0,0,0-.53-8.64,8.65,8.65,0,0,1-.16-2.87,8,8,0,0,0-.2-1.65c-.18-2.08-.89-4.08-.91-6.2,0-3.69.22-7.37.45-11.05a19,19,0,0,0,0-3.85c-.41-3.12-.88-6.23-1.52-9.32a10.58,10.58,0,0,1-.24-4,12,12,0,0,0,0-3.38c-.5-4.34-.14-8.66,0-13,.1-3.6.85-7.21,0-10.81.2-2.35-.42-4.64-.64-7a19.47,19.47,0,0,1-.12-4.31,34.18,34.18,0,0,0,.36-7.13c-.23-3.2-.16-6.41-.84-9.6a62.06,62.06,0,0,1-.83-8.41c-.09-1.2.14-2.43,0-3.62-.35-2.53-.14-5.08-.27-7.62a65.8,65.8,0,0,0-.75-8.17,35.32,35.32,0,0,1-.49-11,2.38,2.38,0,0,1,1.46-2.1,77.79,77.79,0,0,0,8.29-4.09,19.6,19.6,0,0,0,4.72-3.4,12.58,12.58,0,0,1,4.42-3.35c3.46-1.39,6.63-3.29,9.92-5a35.7,35.7,0,0,0,7.66-5.06c1.27-1.11,2.59-2.18,3.85-3.29s2.45-2.09,3.55-3.23A25.62,25.62,0,0,1,429,212.4a7,7,0,0,0,1.18-1.25c.33-.37.63-.76,1-1.12.62-.67,1.26-1.33,1.88-2,.27-.31.43-.73.76-1a23.22,23.22,0,0,0,5.73-5.89c.14-.2.49-.29.86-.49a6.9,6.9,0,0,1,.13.91c-.14,2.89-.29,5.77-.43,8.66a54.77,54.77,0,0,0-.28,7.23,22.25,22.25,0,0,1-.27,7.89,2.05,2.05,0,0,0,0,.49c-.1,3.45-.25,6.91-.27,10.37,0,.88,0,1.76,0,2.64a138,138,0,0,0-1,34.3A66,66,0,0,0,437,288.56a4.74,4.74,0,0,0-.17.94,121.16,121.16,0,0,0,.9,25.88c.9,6.24,1.36,12.64,8.48,15.27,2.33.86,5-.59,6.12-2.48,1.77-.84,3.15-2.5,3-4.21a306.12,306.12,0,0,0,21.55-29.16,4.14,4.14,0,0,0,.5-3.89c.13-.37.26-.74.38-1.12,4-13.16,4.89-27.79,4.58-41.71A266.83,266.83,0,0,0,482,218.3c.13-1,.27-1.9.43-2.86.68-4.18,1-8.57-.71-12.31.29-1.15.26-2.36,1-3.42.15-.24.06-.62.06-.94a9.41,9.41,0,0,1,0-1.68c.41-2.14-.2-4.32.28-6.46A3.53,3.53,0,0,0,483,189.42Z"/><path class="cls-2" d="M151.18,249.79a40.67,40.67,0,0,0,5.33-5.53,69.52,69.52,0,0,1,5.86-6.26,68.11,68.11,0,0,1,6.47-4.47c2.17-1.49,4.31-3,6.49-4.5a13.53,13.53,0,0,1,2.11-1.08c.83-.36,1.68-.66,2.75-1.07,1,.35,2.14.83,3.34,1.19,3.39,1,6.82,1.93,10.2,3,2.07.63,4.11,1.38,6.14,2.14a5.64,5.64,0,0,1,1.43.9c.36.28.58.79,1,1,3,1.41,4,4.12,4.83,7.08a25,25,0,0,0,2.75,6.25,17.37,17.37,0,0,1,2.18,6.09c.24,1.49-.43,3.14-.69,4.71s-.45,2.93-.76,4.37a21.65,21.65,0,0,1-4.67,9.43c-3.31,4-7.67,6.77-11.62,10a30.67,30.67,0,0,1-4.15,3c-2.55,1.46-4.94,3.31-7.94,3.85-4.64,2.37-9.8,3.12-14.67,4.74a35.11,35.11,0,0,1-4.73.8,78.92,78.92,0,0,1-8.1,1.45,16.87,16.87,0,0,1-4.08.11,3.42,3.42,0,0,0-3.7,1.85,16.54,16.54,0,0,0-2.74,8.35,67.67,67.67,0,0,1-1.44,10.89c-.25,1.23-.35,2.49-.52,3.73a8.83,8.83,0,0,0,.69,5,9.51,9.51,0,0,1,.71,2.29c.56,3.41,2.42,6.14,4.57,8.7a84.94,84.94,0,0,0,10.58,10.28c1.66,1.39,3.43,2.66,5.2,3.9A10,10,0,0,0,169,354a14.46,14.46,0,0,1,3.35.74,9.49,9.49,0,0,0,5.07.17,104.27,104.27,0,0,0,13.91-3.77,31.2,31.2,0,0,1,4.26-1.31,21.12,21.12,0,0,0,8-3.72c2-1.48,4.08-2.94,6.16-4.36a22.79,22.79,0,0,1,7.38-3.54,11.25,11.25,0,0,0,5.54-3.3c2.74-2.93,5.43-5.89,8.14-8.84a2.75,2.75,0,0,0,.22-.26c3.64-5.86,9.22-9.77,14.41-14,3.17-2.6,6.58-4.9,9.84-7.39a99.16,99.16,0,0,0,8.51-6.85A50.7,50.7,0,0,1,268,294a24.43,24.43,0,0,1,3.24-1.84l2.69-1.52c.58-.32,1.17-.63,1.7-.9.22.24.34.32.35.4,0,1-.81,2.08,0,2.94a6.44,6.44,0,0,0,2.74,2c4.56,1.19,7.54,4.59,10.93,7.44a5.55,5.55,0,0,0,.49.48c3.87,2.82,5.26,7,6.47,11.36,2.17,7.77,1.3,15.4-.8,23-1.19,4.31-2.49,8.58-3.8,12.85a32.2,32.2,0,0,1-7.28,12.27,25.48,25.48,0,0,0-5.63,8.52,21.32,21.32,0,0,1-3.07,6.12,7.94,7.94,0,0,0-1.11,2.12,23.11,23.11,0,0,1-6.87,9.7,3.91,3.91,0,0,0-1.12,1.25,11.65,11.65,0,0,1-3.69,4.45c-.53.42-.94,1-1.44,1.47a3.88,3.88,0,0,0-1.56,3.58c.17,1.19-.65,1.55-1.8.95a12.82,12.82,0,0,1-1.26-.87,14.19,14.19,0,0,0-1.58,1.19c-1.45,1.44-2.56,3.24-4.57,4.08-.37.16-.64.64-.89,1a17.13,17.13,0,0,1-4.78,4.4c-5.24,3.5-10.08,7.54-15.23,11.14a70.35,70.35,0,0,1-9,5c-2.76,1.36-5.65,2.45-8.51,3.58a67.75,67.75,0,0,1-24.42,5c-2.62,0-5.25.16-7.87.24a10.6,10.6,0,0,1-1.38,0c-7.18-.69-14.41-1-21.5-2.47-2.24-.47-4.52-.72-6.79-1.05a79,79,0,0,1-19.7-5.79,106.57,106.57,0,0,1-20.12-11.7c-2-1.45-3.67-3.44-5.56-5.11a54.41,54.41,0,0,1-10.09-12.49,22.66,22.66,0,0,1-2.68-7.76,142,142,0,0,1-2.17-15.21,49.08,49.08,0,0,1,.23-5.8c.1-2.28.18-4.57.32-6.85a43.68,43.68,0,0,1,.42-4.43c1-5.86,2.19-11.67,2.89-17.59a73.18,73.18,0,0,1,3.87-15.28c1.53-4.4,3.69-8.59,5.58-12.87,1.11-2.51,2.07-5.11,3.41-7.5,2-3.59,4.28-7,6.45-10.53.84-1.36,1.76-2.67,2.56-4s.54-2.32-.88-3.1a27.72,27.72,0,0,1-3.6-2,21.93,21.93,0,0,1-6.81-9.28c-1.63-3.94-2.3-8.14-3.7-12.13-1.78-5.06-1.76-10.32-1.84-15.57,0-2.41.13-4.82,0-7.22a33.93,33.93,0,0,1,1-9.49c.91-3.88,2.19-7.68,3.36-11.51.7-2.29,1.5-4.56,2.26-6.83a8.79,8.79,0,0,1,.7-1.92c2.65-4.31,4-9.21,6.35-13.66,1.42-2.74,2.86-5.48,4.48-8.11,2.17-3.5,4.53-6.88,6.78-10.32,1.89-2.88,3.57-5.89,6.14-8.25,2.74-4.49,6.75-7.69,10.84-10.86,2.34-1.81,4.38-4,6.54-6,2.58-2.44,5.12-4.91,7.72-7.33s6-4.22,9-6.27c4.82-3.27,9.83-6.28,14-10.47a3.89,3.89,0,0,1,3.74-1.24,31.28,31.28,0,0,1,4.95,1.29,7.21,7.21,0,0,0,5.34.26,9.27,9.27,0,0,1,2.34-.48c1-.09,2,.73,1.74,1.65-.67,2.46.6,4,1.95,5.82a9.91,9.91,0,0,1,1.24,9.8,18.63,18.63,0,0,1-3.09,5.71,8.55,8.55,0,0,0-1,1.39c-1.6,2.83-4.16,4.46-7,5.81a35.47,35.47,0,0,0-3.26,1.9c-3.49,2.19-6.86,4.61-10.5,6.53-2.32,1.23-4.59,2.55-6.9,3.78a21.69,21.69,0,0,0-6.94,6.48c-2.68,3.56-4.88,7.48-8,10.74a69.65,69.65,0,0,0-4.54,5.59,9.55,9.55,0,0,0-1.35,2.36c-.86,2.24-1.68,4.49-2.42,6.77a60,60,0,0,0-2.7,16.9,57.89,57.89,0,0,0,1,10.23,30.87,30.87,0,0,0,1.73,5.54c1.16,3.23,2.31,6.46,3.6,9.64C149,246.66,149.46,248.4,151.18,249.79Zm15.66,11.14a11.71,11.71,0,0,0,1.93.19c4.3-.55,8.6-1.08,12.89-1.72a5.46,5.46,0,0,0,2.49-1.08c1.82-1.42,3.68-3.08,3.38-5.6a31.54,31.54,0,0,0-1.87-6.56,2,2,0,0,0-2.91-.9,14.87,14.87,0,0,0-2.44,1.84c-2.75,2.39-5.1,5.22-8,7.44a47.28,47.28,0,0,0-4.76,4.42C167.12,259.35,167.1,260.1,166.84,260.93Zm-6,5.37-.08-.27-.2.34Z"/></svg>