<svg id="Layer_1" data-name="Layer 1" xmlns="http://www.w3.org/2000/svg" width="583.48" height="583" viewBox="0 0 583.48 583"><defs><style>.cls-1{fill:#595959;}.cls-2{fill:#fff;}</style></defs><path class="cls-1" d="M61.28,496.08a101.52,101.52,0,0,0,35.56,32.16C142,552.54,255.35,602,378.32,565.68c203-59.89,216.75-295.43,193-368.12S498.05,10,286.69,10.44,18.35,167.65,12.69,215.91C7.36,261.42-14.89,384.83,61.28,496.08Z"/><path class="cls-2" d="M483,211c-.21-1.6-.41-3.19-.66-4.79s-.55-3.34-.83-5a50.47,50.47,0,0,1-1-6.64,41,41,0,0,0-.69-5c-.65-4.46-1.78-8.85-2.16-13.36-.15-1.77,0-3.55-.19-5.29a46.83,46.83,0,0,0-2.06-10.17,13.48,13.48,0,0,0-1-2,6.4,6.4,0,0,1-.66-1c-.66-2.33-1.31-4.67-1.9-7a15.64,15.64,0,0,1-.14-5,19.63,19.63,0,0,0-2.17-10.29,78.75,78.75,0,0,1-3.75-10.29,3.7,3.7,0,0,0-1.12-1.83,7.2,7.2,0,0,0-4-1.61,3.19,3.19,0,0,0-2.39.72c-2.54,1.92-3.81,4.63-5.22,7.18a24.08,24.08,0,0,0-2.24,6.38,10.49,10.49,0,0,1-1,2.48,17.77,17.77,0,0,0-2.11,5.42c-.21,1.18-.74,2.32-1,3.49a24.4,24.4,0,0,0-1.14,4.68c-.13,2.25-.36,4.49-.58,6.73a20.28,20.28,0,0,0-.35,2.14c0,3.52.43,7-.08,10.56,0,.23.1.47.13.71.55,3.5,1.22,7,0,10.51a1,1,0,0,0,0,.24,30.12,30.12,0,0,1-.52,6,15.81,15.81,0,0,1-1.18,4.91,2.37,2.37,0,0,0-.17.93,59.3,59.3,0,0,1-1,7.12c-.51,2.51-1.48,5-1.35,7.58a2.51,2.51,0,0,1-.82,2,34.88,34.88,0,0,1-3.85,3.62c-1.83,1.37-3.53,2.91-5.23,4.42-2.34,2.08-4.6,4.22-6.94,6.29-1.14,1-2.39,1.9-3.59,2.84-3.68,2.89-7.41,5.69-11.89,7.52-.55.22-1,.58-1.59.85a24,24,0,0,1-2.36,1.07c-3.12,1.09-6.16,2.33-9.17,3.66-3.87,1.71-7.8,3.32-11.53,5.28-.75.39-1.58.64-2.35.95-1.08-.8-.49-1.61-.72-2.27a8.29,8.29,0,0,1,.29-5,23.16,23.16,0,0,0,.78-9.06c-.14-1.11-.44-2.21-.61-3.32-.55-3.59-1-7.19-1.63-10.76a18,18,0,0,1-.17-4.81c.21-2,.47-4,.49-6,0-1.58-.41-3.17.26-4.73a1.54,1.54,0,0,0,.05-.71c-.29-2.48-.52-5-.89-7.42-.52-3.51-.92-7-1.11-10.56a10.82,10.82,0,0,0-.51-3.1c-1.51-4.06-2-8.3-2.76-12.51-.26-1.5-.54-3-.84-4.49a6.42,6.42,0,0,0-.42-.88,13.13,13.13,0,0,1-.49-1.62c-.44-2.06-.85-4.12-1.27-6.18a4.18,4.18,0,0,1-.19-1.43,16.85,16.85,0,0,0-.28-4.31,40.83,40.83,0,0,1-.36-5.05,24.13,24.13,0,0,0-.3-4.08,2.43,2.43,0,0,0-.42-1.1c-1.35-1.82-3.29-3.11-5-4.63-2.11-.61-3.69-2.15-5.83-2.76a4.87,4.87,0,0,0-3-.3,3,3,0,0,1-1.79,0c-2.19-.78-4.5-.57-6.75-.83a2.79,2.79,0,0,0-2.26.42c-1.25,1.1-2.87,1.55-4.3,2.32a15.12,15.12,0,0,0-2.53,1.7,21.42,21.42,0,0,0-2.1,2.16,13.66,13.66,0,0,0-1.2,1.55c-1.15,1.76-1.49,3.76-2,5.71a5.22,5.22,0,0,0-.11,3.23,6.2,6.2,0,0,1-.21,3.09,9.73,9.73,0,0,1-1.21,3.4c-.75,1.1-.62,2.35-1.15,3.41a71.12,71.12,0,0,0-2.8,7.8,83.16,83.16,0,0,0-3.14,11.44c-.26,1.26-.26,2.56-.49,3.82q-.9,4.88-1.77,9.75c-.61,3.34-.67,6.71-1.08,10.06-.27,2.14-.15,4.33-.21,6.49,0,.24-.13.51-.05.72.8,2.2.28,4.48.49,6.71a57.06,57.06,0,0,0,.52,5.72A99,99,0,0,1,323.3,233a42.52,42.52,0,0,1,0,4.79,75.73,75.73,0,0,1-.7,8.39,52.17,52.17,0,0,0-.72,7.15c-.13,3.61-.34,7.22-.35,10.83,0,2.15-.58,4.3-.06,6.46a4.5,4.5,0,0,1-.15,1.44,4.74,4.74,0,0,0-.14,1.17,44.52,44.52,0,0,1,0,6.22c0,3.67-1.62,7.07-1.72,10.69-.7.93-.47,2-.59,3s-.16,1.77-.27,2.65c-.33,2.79-.69,5.58-1,8.37a3.53,3.53,0,0,0,.08.72,17.83,17.83,0,0,1-.26,5.05,23,23,0,0,0-.26,3.11c-.07,1.69-.08,3.38-.12,5.06-.06,2.33-.15,4.67-.19,7,0,1.18.56,2.36-.11,3.54a.8.8,0,0,0,.1.68,2.89,2.89,0,0,1,0,2.58,8.53,8.53,0,0,1-.69,2.05c-.63.88.68,1.26.43,2,0,.07,0,.16,0,.24a30.73,30.73,0,0,0-.53,5.74c-.08,1.21-.34,2.4-.49,3.59-.3,2.4-.49,4.81-.86,7.2a54.63,54.63,0,0,0-.56,8.38c0,4.1-.16,8.21-.19,12.32a43.32,43.32,0,0,0,.21,7.72,23.45,23.45,0,0,1,.43,4.33c-.06,3.13-.29,6.25-.43,9.38-.14,3.37-.3,6.75-.36,10.13,0,1.85.21,3.7.19,5.55a91.85,91.85,0,0,0,.48,10.62,12.75,12.75,0,0,1,.09,2.89,27.56,27.56,0,0,0,.24,5.06c.07,1.21.17,2.41.27,3.62a13.77,13.77,0,0,0,.22,1.92c.63,2.84,1.34,5.66,1.93,8.51a14.09,14.09,0,0,0,3.95,6.73c.39.42.83.81,1.2,1.25,1.66,2,3.47,3.84,6.24,4.6a11.23,11.23,0,0,1,1.44.6,20.27,20.27,0,0,0,7.1,1.69c3.06.08,6.15-.11,9.22-.27a10.71,10.71,0,0,0,6.09-2,4,4,0,0,1,2.66-.92c2.75.16,5.41-.59,8.13-.65a24.22,24.22,0,0,0,9.57-2.43,8.89,8.89,0,0,0,1.3-.77,25.64,25.64,0,0,0,5-4.22,5,5,0,0,1,1.17-1,12.44,12.44,0,0,0,3-3,31.61,31.61,0,0,0,1.8-3.19,9.46,9.46,0,0,0,1.47-4.58,10.24,10.24,0,0,1,.63-3.55,9.68,9.68,0,0,0,.7-5.21c-.18-1.76-.4-3.52-.68-5.27a4.14,4.14,0,0,1,.17-2.12,15.21,15.21,0,0,0,.54-7.63,10.24,10.24,0,0,1-.12-2.41,31.63,31.63,0,0,0-.53-8.63,8.65,8.65,0,0,1-.16-2.87,7.83,7.83,0,0,0-.2-1.65c-.18-2.08-.89-4.08-.91-6.2,0-3.7.22-7.37.45-11a19.15,19.15,0,0,0,0-3.86c-.41-3.11-.88-6.23-1.52-9.31a10.58,10.58,0,0,1-.24-4,12,12,0,0,0,0-3.38c-.5-4.34-.14-8.67,0-13,.1-3.6.85-7.21,0-10.82.2-2.35-.42-4.63-.64-6.95a19.56,19.56,0,0,1-.12-4.32,34.11,34.11,0,0,0,.36-7.13,69.27,69.27,0,0,0-.84-9.6,61.9,61.9,0,0,1-.83-8.41c-.09-1.2.14-2.42,0-3.61-.35-2.53-.14-5.08-.27-7.62a66.14,66.14,0,0,0-.75-8.18,35.25,35.25,0,0,1-.49-11,2.37,2.37,0,0,1,1.46-2.1,77.79,77.79,0,0,0,8.29-4.09,19.87,19.87,0,0,0,4.72-3.4,12.58,12.58,0,0,1,4.42-3.35c3.46-1.39,6.63-3.29,9.92-5a35.7,35.7,0,0,0,7.66-5.06c1.27-1.12,2.59-2.18,3.85-3.29s2.45-2.09,3.55-3.24A25.56,25.56,0,0,1,429,234a7,7,0,0,0,1.18-1.25c.33-.37.63-.76,1-1.12.62-.68,1.26-1.33,1.88-2,.27-.31.43-.73.76-1a23.18,23.18,0,0,0,5.73-5.88c.14-.2.49-.29.86-.5a7.22,7.22,0,0,1,.13.92c-.14,2.88-.29,5.77-.43,8.65a54.83,54.83,0,0,0-.28,7.23,22.31,22.31,0,0,1-.27,7.9,2,2,0,0,0,0,.48c-.1,3.46-.25,6.92-.27,10.38,0,.88,0,1.75,0,2.63a138.08,138.08,0,0,0-1,34.31A66,66,0,0,0,437,310.17a4.64,4.64,0,0,0-.17.93,121.11,121.11,0,0,0,.9,25.88c.9,6.25,1.36,12.64,8.48,15.28,2.33.86,5-.59,6.12-2.49,1.77-.83,3.15-2.49,3-4.21a304.72,304.72,0,0,0,21.55-29.15,4.14,4.14,0,0,0,.5-3.89c.13-.37.26-.74.38-1.13,4-13.15,4.89-27.79,4.58-41.7a266.83,266.83,0,0,0-.41-29.78c.13-.95.27-1.91.43-2.86.68-4.18,1-8.57-.71-12.31.29-1.15.26-2.37,1-3.43.15-.23.06-.61.06-.93a9.41,9.41,0,0,1,0-1.68c.41-2.15-.2-4.32.28-6.47A3.48,3.48,0,0,0,483,211Z"/><path class="cls-2" d="M151.18,271.4a41.26,41.26,0,0,0,5.33-5.53,68.2,68.2,0,0,1,5.86-6.26,66.31,66.31,0,0,1,6.47-4.47c2.17-1.49,4.31-3,6.49-4.5a13.53,13.53,0,0,1,2.11-1.08c.83-.36,1.68-.66,2.75-1.07,1,.35,2.14.83,3.34,1.18,3.39,1,6.82,1.94,10.2,3,2.07.64,4.11,1.39,6.14,2.14a5.68,5.68,0,0,1,1.43.91c.36.28.58.78,1,1,3,1.41,4,4.11,4.83,7.08a25.11,25.11,0,0,0,2.75,6.25,17.37,17.37,0,0,1,2.18,6.09c.24,1.49-.43,3.13-.69,4.71s-.45,2.93-.76,4.37a21.56,21.56,0,0,1-4.67,9.42c-3.31,4-7.67,6.78-11.62,10a29.91,29.91,0,0,1-4.15,3.05c-2.55,1.46-4.94,3.31-7.94,3.85-4.64,2.36-9.8,3.11-14.67,4.74a33.59,33.59,0,0,1-4.73.79,76.3,76.3,0,0,1-8.1,1.45,16.87,16.87,0,0,1-4.08.12,3.42,3.42,0,0,0-3.7,1.85,16.54,16.54,0,0,0-2.74,8.34,67.52,67.52,0,0,1-1.44,10.89c-.25,1.23-.35,2.5-.52,3.74a8.83,8.83,0,0,0,.69,5,9.58,9.58,0,0,1,.71,2.28c.56,3.42,2.42,6.15,4.57,8.7a84.32,84.32,0,0,0,10.58,10.29c1.66,1.38,3.43,2.65,5.2,3.9a10,10,0,0,0,5.07,1.94,14.46,14.46,0,0,1,3.35.74,9.7,9.7,0,0,0,5.07.17,105.8,105.8,0,0,0,13.91-3.77,31.2,31.2,0,0,1,4.26-1.31,21,21,0,0,0,8-3.73c2-1.47,4.08-2.94,6.16-4.35a22.58,22.58,0,0,1,7.38-3.54,11.26,11.26,0,0,0,5.54-3.31c2.74-2.92,5.43-5.89,8.14-8.84a2.62,2.62,0,0,0,.22-.25c3.64-5.87,9.22-9.77,14.41-14,3.17-2.6,6.58-4.9,9.84-7.4a95.46,95.46,0,0,0,8.51-6.85,50.57,50.57,0,0,1,4.17-3.48,25.66,25.66,0,0,1,3.24-1.85l2.69-1.51,1.7-.91c.22.25.34.33.35.4,0,1-.81,2.08,0,2.95a6.34,6.34,0,0,0,2.74,2c4.56,1.2,7.54,4.6,10.93,7.45a5.55,5.55,0,0,0,.49.48c3.87,2.81,5.26,7,6.47,11.36,2.17,7.76,1.3,15.4-.8,23-1.19,4.3-2.49,8.58-3.8,12.85a32.28,32.28,0,0,1-7.28,12.27,25.54,25.54,0,0,0-5.63,8.51,21.19,21.19,0,0,1-3.07,6.12,8,8,0,0,0-1.11,2.13,23.11,23.11,0,0,1-6.87,9.7A3.91,3.91,0,0,0,267,411.8a11.54,11.54,0,0,1-3.69,4.44c-.53.43-.94,1-1.44,1.48a3.87,3.87,0,0,0-1.56,3.58c.17,1.19-.65,1.54-1.8.95a13.17,13.17,0,0,1-1.26-.88,15.62,15.62,0,0,0-1.58,1.2c-1.45,1.43-2.56,3.24-4.57,4.08-.37.16-.64.64-.89,1a17.17,17.17,0,0,1-4.78,4.41c-5.24,3.49-10.08,7.54-15.23,11.14a70.35,70.35,0,0,1-9,5c-2.76,1.36-5.65,2.45-8.51,3.58a67.52,67.52,0,0,1-24.42,5c-2.62,0-5.25.17-7.87.25a12.72,12.72,0,0,1-1.38,0c-7.18-.69-14.41-1-21.5-2.47-2.24-.48-4.52-.72-6.79-1a79.49,79.49,0,0,1-19.7-5.8,106.52,106.52,0,0,1-20.12-11.69c-2-1.46-3.67-3.44-5.56-5.12a54.14,54.14,0,0,1-10.09-12.48,22.66,22.66,0,0,1-2.68-7.76,142,142,0,0,1-2.17-15.21,49,49,0,0,1,.23-5.8c.1-2.28.18-4.57.32-6.85a43.68,43.68,0,0,1,.42-4.43c1-5.86,2.19-11.68,2.89-17.6a73.24,73.24,0,0,1,3.87-15.27c1.53-4.4,3.69-8.59,5.58-12.87,1.11-2.51,2.07-5.11,3.41-7.5,2-3.59,4.28-7,6.45-10.54.84-1.35,1.76-2.66,2.56-4s.54-2.33-.88-3.1a26.63,26.63,0,0,1-3.6-2,22,22,0,0,1-6.81-9.27c-1.63-3.94-2.3-8.14-3.7-12.13-1.78-5.06-1.76-10.32-1.84-15.57,0-2.41.13-4.82,0-7.22a33.93,33.93,0,0,1,1-9.49c.91-3.89,2.19-7.69,3.36-11.51.7-2.29,1.5-4.56,2.26-6.83a8.87,8.87,0,0,1,.7-1.93c2.65-4.3,4-9.2,6.35-13.65,1.42-2.74,2.86-5.49,4.48-8.11,2.17-3.5,4.53-6.88,6.78-10.33,1.89-2.87,3.57-5.89,6.14-8.25,2.74-4.48,6.75-7.68,10.84-10.85,2.34-1.81,4.38-4,6.54-6,2.58-2.44,5.12-4.92,7.72-7.33s6-4.22,9-6.27c4.82-3.27,9.83-6.28,14-10.47a3.84,3.84,0,0,1,3.74-1.24,30.23,30.23,0,0,1,4.95,1.29,7.16,7.16,0,0,0,5.34.25,9.72,9.72,0,0,1,2.34-.47c1-.09,2,.72,1.74,1.65-.67,2.46.6,4,1.95,5.81a9.92,9.92,0,0,1,1.24,9.8,18.68,18.68,0,0,1-3.09,5.72,8.93,8.93,0,0,0-1,1.38c-1.6,2.84-4.16,4.47-7,5.82a33.32,33.32,0,0,0-3.26,1.9c-3.49,2.19-6.86,4.61-10.5,6.53-2.32,1.22-4.59,2.54-6.9,3.78a21.69,21.69,0,0,0-6.94,6.48c-2.68,3.56-4.88,7.47-8,10.74a69.65,69.65,0,0,0-4.54,5.59,9.38,9.38,0,0,0-1.35,2.36c-.86,2.23-1.68,4.49-2.42,6.77a60,60,0,0,0-2.7,16.9,58,58,0,0,0,1,10.23,30.87,30.87,0,0,0,1.73,5.54c1.16,3.23,2.31,6.46,3.6,9.63C149,268.27,149.46,270,151.18,271.4Zm15.66,11.13a10.67,10.67,0,0,0,1.93.19c4.3-.54,8.6-1.07,12.89-1.71a5.57,5.57,0,0,0,2.49-1.08c1.82-1.43,3.68-3.09,3.38-5.6a31.37,31.37,0,0,0-1.87-6.56,2,2,0,0,0-2.91-.9,14.87,14.87,0,0,0-2.44,1.84c-2.75,2.39-5.1,5.22-8,7.44a46.15,46.15,0,0,0-4.76,4.42C167.12,281,167.1,281.71,166.84,282.53Zm-6,5.37-.08-.27-.2.35Z"/></svg>